#!OML:ASF X:\für Bonn\!DataBase\2005_08_12_Daniel\c3d\Daniel.ASF
:FULLY-SPECIFIED
:DEGREES
16
root 0.217587 17.8246 11.6955 9.17142 159.534 -347.191
lowerback 6.00012 -7.32913 6.5474
upperback 0.0316331 -9.07285 2.80237
thorax -3.86398 -4.53458 0.17581
lowerneck -5.16291 13.5323 -0.214479
upperneck 0.00954141 18.6549 -10.3693
head 1.93433 9.24597 -2.53399
rclavicle 5.1684e-015 -2.38542e-014
rhumerus -76.9958 11.4983 -85.0879
rradius 60.688
rwrist 0.534598
rhand -30.5931 32.7996
rfingers 7.12502
rthumb -3.8902 2.85535
lclavicle 5.1684e-015 -2.38542e-014
lhumerus -48.5704 -5.02772 88.6158
lradius 122.938
lwrist 14.9706
lhand -18.2718 -16.7794
lfingers 7.12502
lthumb 8.00805 13.0489
rfemur -30.5641 9.43121 20.8497
rtibia 45.0843
rfoot -5.97825 -9.64615
rtoes -25.4465
lfemur 9.0965 -0.895625 -24.4764
ltibia 35.1548
lfoot 3.55683 -1.64144
ltoes -2.1477
17
root 0.330326 17.872 11.3881 9.52742 159.787 -347.288
lowerback 5.3513 -7.24478 6.63064
upperback -0.142312 -9.00656 2.86375
thorax -3.68374 -4.50544 0.113459
lowerneck -5.32409 13.5069 0.072875
upperneck 0.188303 18.6368 -10.4899
head 2.06519 9.22402 -2.59491
rclavicle 3.13086e-014 1.35174e-014
rhumerus -77.4111 11.7426 -84.9425
rradius 60.6135
rwrist -0.467069
rhand -30.1658 32.6748
rfingers 7.12502
rthumb -3.4776 2.72337
lclavicle 3.13086e-014 1.35174e-014
lhumerus -49.0832 -5.92384 88.5377
lradius 122.82
lwrist 14.8708
lhand -18.1827 -17.0732
lfingers 7.12502
lthumb 8.09396 12.7518
rfemur -30.3573 9.88765 20.5815
rtibia 41.6807
rfoot -6.22017 -10.1089
rtoes -23.84
lfemur 8.69295 -0.717514 -24.4691
ltibia 36.2515
lfoot 4.57429 -0.988272
ltoes -3.51004
18
root 0.442694 17.8969 11.0856 9.75425 159.961 -347.362
lowerback 4.84398 -7.137 6.69789
upperback -0.225679 -8.90031 2.91489
thorax -3.4844 -4.45273 0.0570264
lowerneck -5.45461 13.4628 0.220657
upperneck 0.127116 18.5735 -10.5756
head 2.08965 9.19162 -2.63919
rclavicle 1.43125e-014 -1.59028e-014
rhumerus -77.5906 12.0036 -84.8239
rradius 60.5218
rwrist -1.65963
rhand -29.6002 32.454
rfingers 7.12502
rthumb -2.9314 2.49444
lclavicle 1.43125e-014 -1.59028e-014
lhumerus -49.572 -6.75236 88.5938
lradius 122.621
lwrist 14.6569
lhand -18.1994 -17.4107
lfingers 7.12502
lthumb 8.07791 12.4149
rfemur -30.1255 10.1156 20.4367
rtibia 38.6386
rfoot -6.26697 -10.1985
rtoes -22.8283
lfemur 8.30151 -0.389966 -24.4323
ltibia 37.671
lfoot 5.2162 -0.316809
ltoes -4.71994
19
root 0.552877 17.9084 10.7882 9.72157 160.058 -347.498
lowerback 4.65612 -7.01457 6.65106
upperback -0.237147 -8.75889 2.90912
thorax -3.37769 -4.38153 0.0368152
lowerneck -5.63402 13.4073 0.413797
upperneck 0.0637686 18.4903 -10.6558
head 2.1248 9.14749 -2.68642
rclavicle -5.98839e-014 -2.38542e-015
rhumerus -77.442 12.035 -84.5916
rradius 60.2871
rwrist -2.64124
rhand -28.8632 32.1968
rfingers 7.12502
rthumb -2.21958 2.22857
lclavicle -5.98839e-014 -2.38542e-015
lhumerus -50.1108 -7.49836 88.6611
lradius 122.345
lwrist 14.4154
lhand -18.0539 -17.7068
lfingers 7.12502
lthumb 8.21836 12.1133
rfemur -29.7844 10.0913 20.4098
rtibia 36.0374
rfoot -6.32346 -10.0104
rtoes -23.6502
lfemur 8.02668 -0.109368 -24.5675
ltibia 39.356
lfoot 5.53339 0.509264
ltoes -5.35716
20
root 0.661379 17.901 10.4969 9.46874 160.091 -347.581
lowerback 4.79816 -6.8848 6.57931
upperback -0.190164 -8.57755 2.91847
thorax -3.38625 -4.28877 0.0799984
lowerneck -5.73637 13.3775 0.675354
upperneck -0.0890848 18.4341 -10.8295
head 2.13641 9.12216 -2.7806
rclavicle -2.38542e-014 -1.59028e-014
rhumerus -77.0634 12.0495 -84.2719
rradius 59.9799
rwrist -3.55216
rhand -28.1751 31.9438
rfingers 7.12502
rthumb -1.55504 1.96976
lclavicle -2.38542e-014 -1.59028e-014
lhumerus -50.6658 -8.10083 88.9817
lradius 121.946
lwrist 14.1346
lhand -17.9706 -17.9107
lfingers 7.12502
lthumb 8.29872 11.9063
rfemur -29.3235 9.70728 20.6347
rtibia 33.9343
rfoot -6.28973 -9.37949
rtoes -24.7098
lfemur 7.90544 0.182881 -24.7039
ltibia 41.2393
lfoot 5.5656 1.41919
ltoes -5.02581
21
root 0.769923 17.8755 10.2092 9.12029 160.106 -347.654
lowerback 5.04611 -6.75833 6.46817
upperback -0.0507685 -8.39727 2.92363
thorax -3.35304 -4.19311 0.14526
lowerneck -6.03784 13.36 0.933203
upperneck -0.18564 18.4015 -10.9856
head 2.20057 9.10022 -2.851
rclavicle 6.93262e-014 1.11319e-014
rhumerus -76.3894 11.9545 -83.8693
rradius 59.6104
rwrist -4.18139
rhand -27.5139 31.7763
rfingers 7.12502
rthumb -0.916476 1.79853
lclavicle 6.93262e-014 1.11319e-014
lhumerus -51.0799 -8.53423 89.3307
lradius 121.368
lwrist 13.814
lhand -17.6938 -18.0878
lfingers 7.12502
lthumb 8.56579 11.7184
rfemur -28.843 8.9927 21.048
rtibia 32.3668
rfoot -6.05156 -8.2378
rtoes -26.3321
lfemur 7.78181 0.495481 -24.8301
ltibia 43.2932
lfoot 5.35917 2.27407
ltoes -4.03017
22
root 0.879816 17.8376 9.92155 8.63112 160.083 -347.718
lowerback 5.46487 -6.61449 6.34928
upperback 0.111014 -8.1828 2.87783
thorax -3.39722 -4.08176 0.178405
lowerneck -6.27805 13.3339 1.48015
upperneck -0.230932 18.3538 -11.3341
head 2.32459 9.06751 -3.03048
rclavicle -7.196e-014 2.8625e-014
rhumerus -75.6714 11.6527 -83.435
rradius 59.2594
rwrist -4.47899
rhand -27.1428 31.6428
rfingers 7.12502
rthumb -0.558021 1.6638
lclavicle -7.196e-014 2.8625e-014
lhumerus -51.5771 -8.96984 89.6731
lradius 120.699
lwrist 13.5509
lhand -17.5099 -18.2591
lfingers 7.12502
lthumb 8.74334 11.5398
rfemur -28.3005 8.00979 21.6319
rtibia 31.3226
rfoot -5.60369 -6.70714
rtoes -27.7626
lfemur 7.69812 0.922136 -24.8795
ltibia 45.5077
lfoot 4.88916 3.03047
ltoes -3.09052
23
root 0.990054 17.7879 9.63283 8.09443 160.025 -347.763
lowerback 5.95675 -6.47149 6.16907
upperback 0.294235 -7.96191 2.90231
thorax -3.44171 -3.96326 0.320317
lowerneck -6.49265 13.3294 1.80587
upperneck -0.386098 18.3376 -11.6274
head 2.37939 9.05817 -3.16413
rclavicle 8.97016e-014 -3.26007e-014
rhumerus -74.8107 11.3442 -82.796
rradius 58.9148
rwrist -4.37331
rhand -26.9821 31.5117
rfingers 7.12502
rthumb -0.402752 1.53238
lclavicle 8.97016e-014 -3.26007e-014
lhumerus -52.0819 -9.14636 90.1971
lradius 119.959
lwrist 13.2115
lhand -17.3551 -18.3934
lfingers 7.12502
lthumb 8.8927 11.3992
rfemur -27.8184 6.87217 22.3085
rtibia 30.7931
rfoot -5.06795 -4.88922
rtoes -28.6365
lfemur 7.56621 1.34039 -24.9305
ltibia 47.8937
lfoot 4.4357 3.81213
ltoes -2.18306
